<?xml version="1.0" standalone="no"?>
<!DOCTYPE svg PUBLIC "-//W3C//DTD SVG 20010904//EN"
 "http://www.w3.org/TR/2001/REC-SVG-20010904/DTD/svg10.dtd">
<svg version="1.0" xmlns="http://www.w3.org/2000/svg"
 width="48.000000pt" height="48.000000pt" viewBox="0 0 48.000000 48.000000"
 preserveAspectRatio="xMidYMid meet">

<g transform="translate(0.000000,48.000000) scale(0.100000,-0.100000)"
fill="#000000" stroke="none">
<path d="M211 471 c-8 -5 -20 -7 -28 -4 -7 3 -13 1 -13 -5 0 -15 26 -22 80
-22 27 0 61 -5 75 -12 21 -9 25 -16 20 -38 -5 -22 -2 -28 14 -33 30 -7 61 -66
61 -113 0 -63 -18 -104 -45 -104 -13 0 -38 -15 -58 -35 -32 -32 -40 -35 -90
-35 -78 0 -107 13 -107 47 0 20 -8 33 -29 45 -36 20 -55 80 -45 136 10 54 21
70 49 74 14 2 26 8 27 13 4 18 43 53 53 47 6 -3 4 2 -4 11 -13 16 -16 15 -38
-15 -15 -22 -35 -35 -56 -38 -86 -13 -92 -215 -8 -260 14 -7 21 -21 21 -39 0
-23 7 -32 33 -44 83 -39 158 -29 216 27 20 19 47 36 61 38 30 4 52 44 58 109
6 63 -13 114 -53 146 -26 21 -33 33 -29 49 5 18 -1 26 -24 38 -37 19 -123 30
-141 17z"/>
<path d="M186 384 c-24 -24 -19 -60 11 -84 l27 -21 19 31 c10 16 30 33 43 36
29 7 30 15 6 37 -23 21 -86 22 -106 1z"/>
<path d="M101 309 c-12 -13 -21 -36 -21 -54 0 -65 72 -88 109 -36 l20 28 -24
11 c-14 7 -34 26 -44 43 l-19 31 -21 -23z"/>
<path d="M281 292 l-20 -28 35 -27 c19 -16 34 -37 34 -47 0 -28 27 -15 46 22
40 77 -46 148 -95 80z"/>
<path d="M220 195 c-7 -13 -27 -29 -44 -35 l-31 -11 28 -25 c34 -29 80 -31
107 -4 26 26 25 54 -2 80 -29 26 -42 25 -58 -5z"/>
</g>
</svg>
