<?xml version="1.0" standalone="no"?>
<!DOCTYPE svg PUBLIC "-//W3C//DTD SVG 20010904//EN"
 "http://www.w3.org/TR/2001/REC-SVG-20010904/DTD/svg10.dtd">
<svg version="1.0" xmlns="http://www.w3.org/2000/svg"
 width="204.000000pt" height="204.000000pt" viewBox="0 0 204.000000 204.000000"
 preserveAspectRatio="xMidYMid meet">

<g transform="translate(0.000000,204.000000) scale(0.100000,-0.100000)"
fill="#000000" stroke="none">
<path d="M854 1218 c-42 -20 -44 -42 -44 -438 l0 -379 24 -28 24 -28 371 -3
c204 -1 385 1 403 6 23 5 38 18 51 42 16 32 17 68 15 413 l-3 379 -28 24 -28
24 -382 -1 c-241 0 -390 -4 -403 -11z m369 -278 c50 -40 43 -146 -13 -175 -16
-8 -45 -15 -65 -15 l-35 0 0 -71 0 -70 -37 3 -38 3 -3 173 -2 172 83 0 c69 0
89 -4 110 -20z m157 -125 l0 -145 50 0 c49 0 50 -1 50 -30 l0 -31 -87 3 -88 3
-3 173 -2 172 40 0 40 0 0 -145z"/>
<path d="M1110 856 c0 -42 2 -46 24 -46 31 0 48 22 44 57 -2 23 -8 29 -35 31
-33 3 -33 3 -33 -42z"/>
</g>
</svg>
